<svg width="26" height="26" viewBox="0 0 26 26" fill="none" xmlns="http://www.w3.org/2000/svg">
    <path fill-rule="evenodd" clip-rule="evenodd"
        d="M12.7032 0.411377C11.1781 0.411377 9.94167 1.64777 9.94167 3.17294V23.0562C9.94167 24.5814 11.1781 25.8178 12.7032 25.8178C14.2284 25.8178 15.4648 24.5814 15.4648 23.0562V3.17294C15.4648 1.64777 14.2284 0.411377 12.7032 0.411377ZM0 7.59145C0 6.06628 1.23639 4.82989 2.76156 4.82989C4.28673 4.82989 5.52313 6.06628 5.52313 7.59145V18.6377C5.52313 20.1629 4.28673 21.3993 2.76156 21.3993C1.23639 21.3993 0 20.1629 0 18.6377V7.59145ZM19.8833 7.59145C19.8833 6.06628 21.1197 4.82989 22.6449 4.82989C24.17 4.82989 25.4064 6.06628 25.4064 7.59145V18.6377C25.4064 20.1629 24.17 21.3993 22.6449 21.3993C21.1197 21.3993 19.8833 20.1629 19.8833 18.6377V7.59145Z"
        fill="url(#paint0_linear_2022_153)" />
    <defs>
        <linearGradient id="paint0_linear_2022_153" x1="0" y1="0.411377" x2="30.6312" y2="11.9616"
            gradientUnits="userSpaceOnUse">
            <stop stop-color="#927FF5" />
            <stop offset="1" stop-color="#6587FD" />
        </linearGradient>
    </defs>
</svg>