<svg width="163" height="28" viewBox="0 0 163 28" fill="none" xmlns="http://www.w3.org/2000/svg">
    <path
        d="M41.5534 26.2556C46.4089 26.2556 49.3071 24.1101 49.3071 20.3839C49.3071 15.8295 45.2044 14.9262 41.6287 14.4745C38.8058 14.1358 36.2463 13.9476 36.2463 11.5763C36.2463 9.61908 38.1283 8.37699 40.8759 8.37699C43.8118 8.37699 45.8067 9.84492 45.8443 12.1785H48.8931C48.8931 8.26407 45.6561 5.74225 40.9136 5.74225C36.3592 5.74225 33.2728 8.0006 33.2728 11.6892C33.2728 16.0177 37.3755 16.9587 40.9136 17.3727C43.7741 17.7491 46.3712 17.9373 46.3712 20.4215C46.3712 22.4164 44.5269 23.6208 41.6664 23.6208C38.0906 23.6208 35.9828 21.7765 35.9452 19.0665H32.9341C32.9341 23.5832 36.0958 26.2556 41.5534 26.2556Z"
        fill="white" />
    <path
        d="M58.1493 26.2179C59.0903 26.2179 60.3324 26.0297 61.2357 25.7286V23.2068C60.5206 23.4326 59.542 23.5832 58.9774 23.5832C57.1707 23.5832 56.0415 22.3035 56.0415 20.4968V8.97921H60.9346V6.49504H56.0415L56.0792 0.359863H53.6326L52.9175 6.49504H49.8311V8.97921H52.9175V20.6097C52.9175 23.9596 54.95 26.2179 58.1493 26.2179Z"
        fill="white" />
    <path
        d="M71.5139 26.2556C75.7294 26.2556 79.1546 24.2983 80.6978 21.0614L78.1007 19.744C76.8962 22.0023 74.4121 23.4326 71.5891 23.4326C67.7123 23.4326 64.927 20.8732 64.4753 17.034H81.3C81.3377 16.62 81.3377 16.1683 81.3377 15.7919C81.3377 9.95783 77.1597 5.74225 71.3633 5.74225C65.4916 5.74225 61.276 9.95783 61.276 15.7543C61.276 21.8518 65.5669 26.2556 71.5139 26.2556ZM64.513 14.2863C65.0399 10.8612 67.7123 8.56519 71.2127 8.56519C74.8261 8.56519 77.4985 10.8612 78.0631 14.2863H64.513Z"
        fill="white" />
    <path
        d="M86.7301 25.5028V14.1358C86.7301 10.7859 88.7626 8.56519 91.849 8.56519C94.7848 8.56519 96.7421 10.7859 96.7421 14.1358V25.5028H99.8661V14.1358C99.8661 10.8988 102.012 8.56519 105.06 8.56519C107.921 8.56519 109.991 10.8988 109.991 14.1358V25.5028H113.115V14.1734C113.115 9.24269 109.916 5.77989 105.437 5.77989C102.576 5.77989 100.393 7.21018 99.0757 9.43089H98.7369C97.6454 7.21018 95.1988 5.74225 92.5265 5.74225C90.0423 5.74225 88.0474 7.05962 86.9935 9.01685H86.6171V6.49504H83.606V25.5028H86.7301Z"
        fill="white" />
    <path
        d="M124.246 26.2556C129.102 26.2556 132 24.1101 132 20.3839C132 15.8295 127.897 14.9262 124.322 14.4745C121.499 14.1358 118.939 13.9476 118.939 11.5763C118.939 9.61908 120.821 8.37699 123.569 8.37699C126.505 8.37699 128.499 9.84492 128.537 12.1785H131.586C131.586 8.26407 128.349 5.74225 123.606 5.74225C119.052 5.74225 115.966 8.0006 115.966 11.6892C115.966 16.0177 120.068 16.9587 123.606 17.3727C126.467 17.7491 129.064 17.9373 129.064 20.4215C129.064 22.4164 127.22 23.6208 124.359 23.6208C120.783 23.6208 118.676 21.7765 118.638 19.0665H115.627C115.627 23.5832 118.789 26.2556 124.246 26.2556Z"
        fill="white" />
    <path fill-rule="evenodd" clip-rule="evenodd"
        d="M12.7032 1.77136C11.1781 1.77136 9.94167 3.00776 9.94167 4.53293V24.4162C9.94167 25.9414 11.1781 27.1778 12.7032 27.1778C14.2284 27.1778 15.4648 25.9414 15.4648 24.4162V4.53293C15.4648 3.00776 14.2284 1.77136 12.7032 1.77136ZM0 8.95144C0 7.42627 1.23639 6.18987 2.76156 6.18987C4.28673 6.18987 5.52313 7.42627 5.52313 8.95144V19.9977C5.52313 21.5229 4.28673 22.7593 2.76156 22.7593C1.23639 22.7593 0 21.5229 0 19.9977V8.95144ZM19.8833 8.95144C19.8833 7.42627 21.1197 6.18987 22.6449 6.18987C24.17 6.18987 25.4064 7.42627 25.4064 8.95144V19.9977C25.4064 21.5229 24.17 22.7593 22.6449 22.7593C21.1197 22.7593 19.8833 21.5229 19.8833 19.9977V8.95144Z"
        fill="url(#paint0_linear_109_9)" />
    <path
        d="M138.057 14V5.27273H141.108C141.716 5.27273 142.217 5.37784 142.612 5.58807C143.007 5.79545 143.301 6.07528 143.494 6.42756C143.688 6.77699 143.784 7.16477 143.784 7.59091C143.784 7.96591 143.717 8.27557 143.584 8.51989C143.453 8.7642 143.28 8.95739 143.064 9.09943C142.851 9.24148 142.619 9.34659 142.369 9.41477V9.5C142.636 9.51705 142.905 9.6108 143.175 9.78125C143.445 9.9517 143.67 10.196 143.852 10.5142C144.034 10.8324 144.125 11.2216 144.125 11.6818C144.125 12.1193 144.026 12.5128 143.827 12.8622C143.628 13.2116 143.314 13.4886 142.885 13.6932C142.456 13.8977 141.898 14 141.21 14H138.057ZM139.114 13.0625H141.21C141.901 13.0625 142.391 12.929 142.68 12.6619C142.973 12.392 143.119 12.0653 143.119 11.6818C143.119 11.3864 143.044 11.1136 142.893 10.8636C142.743 10.6108 142.528 10.4091 142.25 10.2585C141.972 10.1051 141.642 10.0284 141.261 10.0284H139.114V13.0625ZM139.114 9.10795H141.074C141.392 9.10795 141.679 9.04545 141.935 8.92045C142.193 8.79545 142.398 8.61932 142.548 8.39205C142.702 8.16477 142.778 7.89773 142.778 7.59091C142.778 7.20739 142.645 6.8821 142.378 6.61506C142.111 6.34517 141.688 6.21023 141.108 6.21023H139.114V9.10795ZM148.469 14.1364C147.839 14.1364 147.295 13.9972 146.837 13.7188C146.383 13.4375 146.032 13.0455 145.785 12.5426C145.54 12.0369 145.418 11.4489 145.418 10.7784C145.418 10.108 145.54 9.51705 145.785 9.00568C146.032 8.49148 146.376 8.09091 146.816 7.80398C147.259 7.5142 147.776 7.36932 148.367 7.36932C148.708 7.36932 149.045 7.42614 149.377 7.53977C149.71 7.65341 150.012 7.83807 150.285 8.09375C150.558 8.34659 150.775 8.68182 150.937 9.09943C151.099 9.51705 151.18 10.0312 151.18 10.642V11.0682H146.134V10.1989H150.157C150.157 9.82955 150.083 9.5 149.935 9.21023C149.79 8.92045 149.583 8.69176 149.313 8.52415C149.046 8.35653 148.731 8.27273 148.367 8.27273C147.967 8.27273 147.62 8.37216 147.327 8.57102C147.038 8.76705 146.815 9.02273 146.658 9.33807C146.502 9.65341 146.424 9.99148 146.424 10.3523V10.9318C146.424 11.4261 146.509 11.8452 146.68 12.1889C146.853 12.5298 147.093 12.7898 147.4 12.9688C147.707 13.1449 148.063 13.233 148.469 13.233C148.734 13.233 148.972 13.196 149.185 13.1222C149.401 13.0455 149.587 12.9318 149.744 12.7812C149.9 12.6278 150.021 12.4375 150.106 12.2102L151.077 12.483C150.975 12.8125 150.803 13.1023 150.562 13.3523C150.32 13.5994 150.022 13.7926 149.667 13.9318C149.312 14.0682 148.913 14.1364 148.469 14.1364ZM155.556 7.45455V8.30682H152.164V7.45455H155.556ZM153.153 5.88636H154.158V12.125C154.158 12.4091 154.2 12.6222 154.282 12.7642C154.367 12.9034 154.475 12.9972 154.606 13.0455C154.739 13.0909 154.88 13.1136 155.028 13.1136C155.138 13.1136 155.229 13.108 155.3 13.0966C155.371 13.0824 155.428 13.071 155.471 13.0625L155.675 13.9659C155.607 13.9915 155.512 14.017 155.39 14.0426C155.268 14.071 155.113 14.0852 154.925 14.0852C154.641 14.0852 154.363 14.0241 154.09 13.902C153.82 13.7798 153.596 13.5938 153.417 13.3438C153.241 13.0938 153.153 12.7784 153.153 12.3977V5.88636ZM158.995 14.1534C158.58 14.1534 158.204 14.0753 157.866 13.919C157.528 13.7599 157.259 13.5312 157.06 13.233C156.862 12.9318 156.762 12.5682 156.762 12.142C156.762 11.767 156.836 11.4631 156.984 11.2301C157.131 10.9943 157.329 10.8097 157.576 10.6761C157.823 10.5426 158.096 10.4432 158.394 10.3778C158.695 10.3097 158.998 10.2557 159.302 10.2159C159.7 10.1648 160.022 10.1264 160.269 10.1009C160.519 10.0724 160.701 10.0256 160.815 9.96023C160.931 9.89489 160.989 9.78125 160.989 9.61932V9.58523C160.989 9.16477 160.874 8.83807 160.644 8.60511C160.417 8.37216 160.072 8.25568 159.609 8.25568C159.129 8.25568 158.752 8.3608 158.479 8.57102C158.207 8.78125 158.015 9.00568 157.904 9.24432L156.95 8.90341C157.12 8.50568 157.347 8.19602 157.631 7.97443C157.918 7.75 158.231 7.59375 158.569 7.50568C158.91 7.41477 159.245 7.36932 159.575 7.36932C159.785 7.36932 160.026 7.39489 160.299 7.44602C160.575 7.49432 160.84 7.59517 161.096 7.74858C161.354 7.90199 161.569 8.13352 161.739 8.44318C161.91 8.75284 161.995 9.16761 161.995 9.6875V14H160.989V13.1136H160.938C160.87 13.2557 160.756 13.4077 160.597 13.5696C160.438 13.7315 160.227 13.8693 159.962 13.983C159.698 14.0966 159.376 14.1534 158.995 14.1534ZM159.148 13.25C159.546 13.25 159.881 13.1719 160.154 13.0156C160.43 12.8594 160.637 12.6577 160.776 12.4105C160.918 12.1634 160.989 11.9034 160.989 11.6307V10.7102C160.947 10.7614 160.853 10.8082 160.708 10.8509C160.566 10.8906 160.401 10.9261 160.214 10.9574C160.029 10.9858 159.849 11.0114 159.673 11.0341C159.499 11.054 159.359 11.071 159.251 11.0852C158.989 11.1193 158.745 11.1747 158.518 11.2514C158.293 11.3253 158.112 11.4375 157.972 11.5881C157.836 11.7358 157.768 11.9375 157.768 12.1932C157.768 12.5426 157.897 12.8068 158.156 12.9858C158.417 13.1619 158.748 13.25 159.148 13.25Z"
        fill="#999999" />
    <defs>
        <linearGradient id="paint0_linear_109_9" x1="0" y1="1.77136" x2="30.6312" y2="13.3216"
            gradientUnits="userSpaceOnUse">
            <stop stop-color="#927FF5" />
            <stop offset="1" stop-color="#6587FD" />
        </linearGradient>
    </defs>
</svg>