<svg viewBox="0 0 32 32" fill="none" xmlns="http://www.w3.org/2000/svg">
    <path
        d="M4 16C4 18.2053 5.79467 20 8 20C9.05867 20 10.016 19.58 10.732 18.9067L18.72 23.472C18.696 23.6453 18.6667 23.8187 18.6667 24C18.6667 26.2053 20.4613 28 22.6667 28C24.872 28 26.6667 26.2053 26.6667 24C26.6667 21.7947 24.872 20 22.6667 20C21.608 20 20.6507 20.42 19.9347 21.0933L11.9467 16.5293C11.9707 16.3547 12 16.1813 12 16C12 15.8187 11.9707 15.6453 11.9467 15.4707L19.9347 10.9067C20.6507 11.58 21.608 12 22.6667 12C24.872 12 26.6667 10.2053 26.6667 8C26.6667 5.79467 24.872 4 22.6667 4C20.4613 4 18.6667 5.79467 18.6667 8C18.6667 8.18133 18.696 8.35467 18.72 8.52933L10.732 13.0933C9.99467 12.3929 9.01698 12.0016 8 12C5.79467 12 4 13.7947 4 16Z"
        fill="currentColor" />
</svg>